# xmcd
#
# Track frame offsets:
#	150
#	12632
#	27455
#	38325
#	52112
#	65515
#	80722
#	93212
#	106980
#	117290
#	131582
#	143767
#	157397
#	169390
#	183010
#	194062
#	206365
#
# Disc length: 2921 seconds
# Revision: 0
# Processed by: cddbd v1.5.2PL0 Copyright (c) Steve Scherf et al.
# Submitted via: dBpowerAMP V12.0
#
DISCID=f40b6711
DTITLE=Elmore James and John Brim - Whose Muddy Shoes
DYEAR=1969
DGENRE=Blues
TTITLE0=Ice Cream Man [1953]
TTITLE1=Whose Muddy Shoes [1953]
TTITLE2=Madison Blues [1960]
TTITLE3=I See My Baby [1953]
TTITLE4=You Got Me [1956]
TTITLE5=My Best Friend [1953]
TTITLE6=The Sun Is Shining [1960]
TTITLE7=Lifetime Baby [1953]
TTITLE8=Talk to Me Baby [1960]
TTITLE9=Rattlesnake [1953]
TTITLE10=Be Careful [1956]
TTITLE11=Dust My Broom [1953]
TTITLE12=Tool Bag Boogie [1953]
TTITLE13=Tough Times [1953]
TTITLE14=Call It Stormy Monday [1960]
TTITLE15=The Sun Is Shining (Alt. Take) [1953]
TTITLE16=Gary Stomp [1954]
EXTD=
EXTT0=
EXTT1=
EXTT2=
EXTT3=
EXTT4=
EXTT5=
EXTT6=
EXTT7=
EXTT8=
EXTT9=
EXTT10=
EXTT11=
EXTT12=
EXTT13=
EXTT14=
EXTT15=
EXTT16=
PLAYORDER=
